<svg width="1102px" height="424px" viewBox="0 0 1102 424" version="1.1" xmlns="http://www.w3.org/2000/svg" xmlns:xlink="http://www.w3.org/1999/xlink">
    <defs>
        <path d="M20.7,115.63 L54,115.63 L54,358.63 L20.7,358.63 L20.7,115.63 Z M93.3,115.63 L116.4,115.63 L185.4,277.03 L185.4,115.63 L213.6,115.63 L213.6,358.63 L192,358.63 L122.1,192.73 L122.1,358.63 L93.3,358.63 L93.3,115.63 Z M251.7,115.63 L304.5,115.63 C330.700131,115.63 349.249946,121.62994 360.15,133.63 C371.050055,145.63006 376.5,164.329873 376.5,189.73 L376.5,279.13 C376.5,305.930134 371.150054,325.879934 360.45,338.98 C349.749947,352.080065 332.000124,358.63 307.2,358.63 L251.7,358.63 L251.7,115.63 Z M304.8,334.33 C316.600059,334.33 325.149973,332.030023 330.45,327.43 C335.750026,322.829977 339.049993,316.580039 340.35,308.68 C341.650006,300.779961 342.3,288.83008 342.3,272.83 L342.3,193.93 C342.3,180.129931 341.450008,169.580037 339.75,162.28 C338.049991,154.979964 334.500027,149.580018 329.1,146.08 C323.699973,142.579983 315.300057,140.83 303.9,140.83 L285.6,140.83 L285.6,334.33 L304.8,334.33 Z M447,272.83 L394.5,115.63 L426,115.63 L463.2,232.93 L499.8,115.63 L531.6,115.63 L479.4,272.83 L479.4,358.63 L447,358.63 L447,272.83 Z" id="path-1"></path>
        <path d="M715.5,115.63 L749.4,115.63 L749.4,334.33 L811.5,334.33 L811.5,358.63 L715.5,358.63 L715.5,115.63 Z M836.4,115.63 L869.7,115.63 L869.7,358.63 L836.4,358.63 L836.4,115.63 Z M909,115.63 L1002.9,115.63 L1002.9,139.93 L942.9,139.93 L942.9,220.93 L989.4,220.93 L989.4,244.93 L942.9,244.93 L942.9,358.63 L909,358.63 L909,115.63 Z M1026.3,115.63 L1120.5,115.63 L1120.5,140.83 L1060.2,140.83 L1060.2,221.23 L1109.1,221.23 L1109.1,245.23 L1060.2,245.23 L1060.2,334.33 L1121.1,334.33 L1121.1,358.63 L1026.3,358.63 L1026.3,115.63 Z" id="path-2"></path>
        <polygon id="path-3" points="523.725 466.31 501.615 457.265 673.9725 43.7075 696.585 52.25"></polygon>
    </defs>
    <g id="Page-1" stroke="none" stroke-width="1" fill="none" fill-rule="evenodd">
        <g id="IndyLife_Logo" transform="translate(-20.000000, -43.000000)">
            <g id="INDY">
                <use fill="#000000" xlink:href="#path-1"></use>
                <use fill="#EC1A2E" xlink:href="#path-1"></use>
            </g>
            <g id="LIFE">
                <use fill="#000000" xlink:href="#path-2"></use>
                <use fill="#281E1E" xlink:href="#path-2"></use>
            </g>
            <g id="/">
                <use fill="#000000" xlink:href="#path-3"></use>
                <use fill="#EC1A2E" xlink:href="#path-3"></use>
            </g>
        </g>
    </g>
</svg>